ffmpeg started on 2025-06-06 at 15:20:20
Report written to "D:\Convert\FFMetrics\reports\psnr_report-6.txt"
Log level: 32
Command line:
ffmpeg -hide_banner -nostdin -i "G:\\\xc0\xed\xe8\xec\xe5\\\xce\xed\xe3\xee\xe8\xed\xe3\xe8\\!_36_\xce\xf1\xe5\xed\xfc_2024\\DreamCast\\\xcd\xe8\xed\xe0 \xe2 \xea\xee\xf0\xee\xeb\xe5\xe2\xf1\xf2\xe2\xe5 \xe7\xe2\xb8\xe7\xe4\\[DC] Hoshi Furu Oukoku no Nina - 06_Telegram_HEVC.mkv" -i "G:\\\xc0\xed\xe8\xec\xe5\\\xce\xed\xe3\xee\xe8\xed\xe3\xe8\\!_36_\xce\xf1\xe5\xed\xfc_2024\\DreamCast\\\xcd\xe8\xed\xe0 \xe2 \xea\xee\xf0\xee\xeb\xe5\xe2\xf1\xf2\xe2\xe5 \xe7\xe2\xb8\xe7\xe4\\[DC] Hoshi Furu Oukoku no Nina - 06_Telegram.mp4" -lavfi "[0:v]settb=AVTB,setpts=PTS-STARTPTS,format=pix_fmts=yuv420p10,fps=24000/1001,scale=1920:1080:flags=bicubic[main];[1:v]settb=AVTB,setpts=PTS-STARTPTS,format=pix_fmts=yuv420p,fps=24000/1001,scale=1920:1080:flags=bicubic[ref];[main][ref]psnr=eof_action=endall:stats_file='D\\:/Convert/FFMetrics/logs/psnr_logfile-6.txt'" -f null -
Input #0, matroska,webm, from 'G:\Аниме\Онгоинги\!_36_Осень_2024\DreamCast\Нина в королевстве звёзд\[DC] Hoshi Furu Oukoku no Nina - 06_Telegram_HEVC.mkv':
  Metadata:
    COMPATIBLE_BRANDS: isomiso2avc1mp41
    MAJOR_BRAND     : isom
    MINOR_VERSION   : 512
    ENCODER         : Lavf61.7.100
  Duration: 00:23:46.65, start: -0.021000, bitrate: 851 kb/s
  Stream #0:0: Video: hevc (Main 10), yuv420p10le(tv, bt709, progressive), 1920x1080 [SAR 1:1 DAR 16:9], 23.98 fps, 23.98 tbr, 1k tbn (default)
      Metadata:
        HANDLER_NAME    : VideoHandler
        VENDOR_ID       : [0][0][0][0]
        ENCODER         : Lavc61.19.100 libx265
        BPS             : 653653
        DURATION        : 00:23:46.549708333
        NUMBER_OF_FRAMES: 34203
        NUMBER_OF_BYTES : 116558610
        _STATISTICS_WRITING_APP: mkvpropedit v66.0.0 ('Josie') 64-bit
        _STATISTICS_WRITING_DATE_UTC: 2025-06-01 12:43:04
        _STATISTICS_TAGS: BPS DURATION NUMBER_OF_FRAMES NUMBER_OF_BYTES
  Stream #0:1: Audio: aac (LC), 48000 Hz, stereo, fltp (default)
      Metadata:
        HANDLER_NAME    : SoundHandler
        VENDOR_ID       : [0][0][0][0]
        ENCODER         : Lavc61.19.100 aac
        BPS             : 193605
        DURATION        : 00:23:46.645000000
        NUMBER_OF_FRAMES: 66875
        NUMBER_OF_BYTES : 34525859
        _STATISTICS_WRITING_APP: mkvpropedit v66.0.0 ('Josie') 64-bit
        _STATISTICS_WRITING_DATE_UTC: 2025-06-01 12:43:04
        _STATISTICS_TAGS: BPS DURATION NUMBER_OF_FRAMES NUMBER_OF_BYTES
Input #1, mov,mp4,m4a,3gp,3g2,mj2, from 'G:\Аниме\Онгоинги\!_36_Осень_2024\DreamCast\Нина в королевстве звёзд\[DC] Hoshi Furu Oukoku no Nina - 06_Telegram.mp4':
  Metadata:
    major_brand     : isom
    minor_version   : 512
    compatible_brands: isomiso2avc1mp41
    encoder         : Lavf61.1.100
  Duration: 00:23:46.62, start: 0.000000, bitrate: 3845 kb/s
  Stream #1:0[0x1](und): Video: h264 (High) (avc1 / 0x31637661), yuv420p(tv, bt709, progressive), 1920x1080 [SAR 1:1 DAR 16:9], 3698 kb/s, 23.98 fps, 23.98 tbr, 24k tbn (default)
      Metadata:
        handler_name    : VideoHandler
        vendor_id       : [0][0][0][0]
        encoder         : Lavc61.3.100 h264_qsv
  Stream #1:1[0x2](und): Audio: aac (HE-AACv2) (mp4a / 0x6134706D), 48000 Hz, stereo, fltp, 144 kb/s (default)
      Metadata:
        handler_name    : SoundHandler
        vendor_id       : [0][0][0][0]
Stream mapping:
  Stream #0:0 (hevc) -> settb:default
  Stream #1:0 (h264) -> settb:default
  psnr:default -> Stream #0:0 (wrapped_avframe)
  Stream #0:1 -> #0:1 (aac (native) -> pcm_s16le (native))
Output #0, null, to 'pipe:':
  Metadata:
    COMPATIBLE_BRANDS: isomiso2avc1mp41
    MAJOR_BRAND     : isom
    MINOR_VERSION   : 512
    encoder         : Lavf61.7.100
  Stream #0:0: Video: wrapped_avframe, yuv420p10le(tv, bt709, progressive), 1920x1080 [SAR 1:1 DAR 16:9], q=2-31, 200 kb/s, 23.98 fps, 23.98 tbn
      Metadata:
        encoder         : Lavc61.19.100 wrapped_avframe
  Stream #0:1: Audio: pcm_s16le, 48000 Hz, stereo, s16, 1536 kb/s (default)
      Metadata:
        HANDLER_NAME    : SoundHandler
        VENDOR_ID       : [0][0][0][0]
        _STATISTICS_TAGS: BPS DURATION NUMBER_OF_FRAMES NUMBER_OF_BYTES
        BPS             : 193605
        DURATION        : 00:23:46.645000000
        NUMBER_OF_FRAMES: 66875
        NUMBER_OF_BYTES : 34525859
        _STATISTICS_WRITING_APP: mkvpropedit v66.0.0 ('Josie') 64-bit
        _STATISTICS_WRITING_DATE_UTC: 2025-06-01 12:43:04
        encoder         : Lavc61.19.100 pcm_s16le
frame=  171 fps=0.0 q=-0.0 size=N/A time=00:00:07.13 bitrate=N/A speed=13.9x    frame=  405 fps=396 q=-0.0 size=N/A time=00:00:16.89 bitrate=N/A speed=16.5x    frame=  655 fps=423 q=-0.0 size=N/A time=00:00:27.31 bitrate=N/A speed=17.7x    frame=  910 fps=442 q=-0.0 size=N/A time=00:00:37.95 bitrate=N/A speed=18.4x    frame= 1177 fps=458 q=-0.0 size=N/A time=00:00:49.09 bitrate=N/A speed=19.1x    frame= 1430 fps=462 q=-0.0 size=N/A time=00:00:59.64 bitrate=N/A speed=19.3x    frame= 1686 fps=469 q=-0.0 size=N/A time=00:01:10.32 bitrate=N/A speed=19.5x    frame= 1949 fps=473 q=-0.0 size=N/A time=00:01:21.28 bitrate=N/A speed=19.7x    frame= 2217 fps=479 q=-0.0 size=N/A time=00:01:32.46 bitrate=N/A speed=  20x    frame= 2496 fps=484 q=-0.0 size=N/A time=00:01:44.10 bitrate=N/A speed=20.2x    frame= 2725 fps=481 q=-0.0 size=N/A time=00:01:53.65 bitrate=N/A speed=20.1x    frame= 2897 fps=468 q=-0.0 size=N/A time=00:02:00.82 bitrate=N/A speed=19.5x    frame= 3095 fps=461 q=-0.0 size=N/A time=00:02:09.08 bitrate=N/A speed=19.2x    frame= 3275 fps=454 q=-0.0 size=N/A time=00:02:16.59 bitrate=N/A speed=18.9x    frame= 3479 fps=450 q=-0.0 size=N/A time=00:02:25.10 bitrate=N/A speed=18.8x    frame= 3645 fps=442 q=-0.0 size=N/A time=00:02:32.02 bitrate=N/A speed=18.4x    frame= 3819 fps=436 q=-0.0 size=N/A time=00:02:39.28 bitrate=N/A speed=18.2x    frame= 3999 fps=431 q=-0.0 size=N/A time=00:02:46.79 bitrate=N/A speed=  18x    frame= 4226 fps=431 q=-0.0 size=N/A time=00:02:56.25 bitrate=N/A speed=  18x    frame= 4418 fps=429 q=-0.0 size=N/A time=00:03:04.26 bitrate=N/A speed=17.9x    frame= 4669 fps=431 q=-0.0 size=N/A time=00:03:14.73 bitrate=N/A speed=  18x    frame= 4884 fps=431 q=-0.0 size=N/A time=00:03:23.70 bitrate=N/A speed=  18x    frame= 5138 fps=433 q=-0.0 size=N/A time=00:03:34.29 bitrate=N/A speed=18.1x    frame= 5381 fps=435 q=-0.0 size=N/A time=00:03:44.43 bitrate=N/A speed=18.1x    frame= 5627 fps=436 q=-0.0 size=N/A time=00:03:54.69 bitrate=N/A speed=18.2x    frame= 5879 fps=438 q=-0.0 size=N/A time=00:04:05.20 bitrate=N/A speed=18.3x    frame= 6143 fps=441 q=-0.0 size=N/A time=00:04:16.21 bitrate=N/A speed=18.4x    frame= 6414 fps=444 q=-0.0 size=N/A time=00:04:27.51 bitrate=N/A speed=18.5x    frame= 6685 fps=446 q=-0.0 size=N/A time=00:04:38.82 bitrate=N/A speed=18.6x    frame= 6938 fps=448 q=-0.0 size=N/A time=00:04:49.37 bitrate=N/A speed=18.7x    frame= 7191 fps=449 q=-0.0 size=N/A time=00:04:59.92 bitrate=N/A speed=18.7x    frame= 7433 fps=449 q=-0.0 size=N/A time=00:05:10.01 bitrate=N/A speed=18.7x    frame= 7644 fps=448 q=-0.0 size=N/A time=00:05:18.81 bitrate=N/A speed=18.7x    frame= 7880 fps=448 q=-0.0 size=N/A time=00:05:28.66 bitrate=N/A speed=18.7x    frame= 8125 fps=449 q=-0.0 size=N/A time=00:05:38.88 bitrate=N/A speed=18.7x    frame= 8360 fps=449 q=-0.0 size=N/A time=00:05:48.68 bitrate=N/A speed=18.7x    frame= 8604 fps=450 q=-0.0 size=N/A time=00:05:58.85 bitrate=N/A speed=18.8x    frame= 8870 fps=451 q=-0.0 size=N/A time=00:06:09.95 bitrate=N/A speed=18.8x    frame= 9119 fps=452 q=-0.0 size=N/A time=00:06:20.33 bitrate=N/A speed=18.9x    frame= 9382 fps=454 q=-0.0 size=N/A time=00:06:31.30 bitrate=N/A speed=18.9x    frame= 9648 fps=455 q=-0.0 size=N/A time=00:06:42.40 bitrate=N/A speed=  19x    frame= 9900 fps=456 q=-0.0 size=N/A time=00:06:52.91 bitrate=N/A speed=  19x    frame=10162 fps=457 q=-0.0 size=N/A time=00:07:03.84 bitrate=N/A speed=19.1x    frame=10453 fps=460 q=-0.0 size=N/A time=00:07:15.97 bitrate=N/A speed=19.2x    frame=10691 fps=459 q=-0.0 size=N/A time=00:07:25.90 bitrate=N/A speed=19.2x    frame=10920 fps=459 q=-0.0 size=N/A time=00:07:35.45 bitrate=N/A speed=19.2x    frame=11179 fps=460 q=-0.0 size=N/A time=00:07:46.25 bitrate=N/A speed=19.2x    frame=11437 fps=461 q=-0.0 size=N/A time=00:07:57.01 bitrate=N/A speed=19.2x    frame=11675 fps=461 q=-0.0 size=N/A time=00:08:06.94 bitrate=N/A speed=19.2x    frame=11927 fps=461 q=-0.0 size=N/A time=00:08:17.45 bitrate=N/A speed=19.2x    frame=12162 fps=461 q=-0.0 size=N/A time=00:08:27.25 bitrate=N/A speed=19.2x    frame=12406 fps=461 q=-0.0 size=N/A time=00:08:37.43 bitrate=N/A speed=19.2x    frame=12627 fps=460 q=-0.0 size=N/A time=00:08:46.65 bitrate=N/A speed=19.2x    frame=12861 fps=460 q=-0.0 size=N/A time=00:08:56.41 bitrate=N/A speed=19.2x    frame=13099 fps=460 q=-0.0 size=N/A time=00:09:06.33 bitrate=N/A speed=19.2x    frame=13336 fps=461 q=-0.0 size=N/A time=00:09:16.22 bitrate=N/A speed=19.2x    frame=13581 fps=461 q=-0.0 size=N/A time=00:09:26.44 bitrate=N/A speed=19.2x    frame=13765 fps=459 q=-0.0 size=N/A time=00:09:34.11 bitrate=N/A speed=19.1x    frame=14023 fps=459 q=-0.0 size=N/A time=00:09:44.87 bitrate=N/A speed=19.2x    frame=14272 fps=460 q=-0.0 size=N/A time=00:09:55.26 bitrate=N/A speed=19.2x    frame=14525 fps=460 q=-0.0 size=N/A time=00:10:05.81 bitrate=N/A speed=19.2x    frame=14759 fps=460 q=-0.0 size=N/A time=00:10:15.57 bitrate=N/A speed=19.2x    frame=15008 fps=461 q=-0.0 size=N/A time=00:10:25.95 bitrate=N/A speed=19.2x    frame=15247 fps=461 q=-0.0 size=N/A time=00:10:35.92 bitrate=N/A speed=19.2x    frame=15484 fps=461 q=-0.0 size=N/A time=00:10:45.81 bitrate=N/A speed=19.2x    frame=15735 fps=461 q=-0.0 size=N/A time=00:10:56.32 bitrate=N/A speed=19.2x    frame=15987 fps=462 q=-0.0 size=N/A time=00:11:06.79 bitrate=N/A speed=19.3x    frame=16245 fps=462 q=-0.0 size=N/A time=00:11:17.55 bitrate=N/A speed=19.3x    frame=16493 fps=462 q=-0.0 size=N/A time=00:11:27.89 bitrate=N/A speed=19.3x    frame=16692 fps=461 q=-0.0 size=N/A time=00:11:36.19 bitrate=N/A speed=19.2x    frame=16943 fps=462 q=-0.0 size=N/A time=00:11:46.66 bitrate=N/A speed=19.3x    frame=17211 fps=462 q=-0.0 size=N/A time=00:11:57.84 bitrate=N/A speed=19.3x    frame=17454 fps=463 q=-0.0 size=N/A time=00:12:07.97 bitrate=N/A speed=19.3x    frame=17689 fps=463 q=-0.0 size=N/A time=00:12:17.77 bitrate=N/A speed=19.3x    frame=17936 fps=463 q=-0.0 size=N/A time=00:12:28.08 bitrate=N/A speed=19.3x    frame=18168 fps=463 q=-0.0 size=N/A time=00:12:37.75 bitrate=N/A speed=19.3x    frame=18394 fps=462 q=-0.0 size=N/A time=00:12:47.18 bitrate=N/A speed=19.3x    frame=18657 fps=463 q=-0.0 size=N/A time=00:12:58.15 bitrate=N/A speed=19.3x    frame=18917 fps=463 q=-0.0 size=N/A time=00:13:08.99 bitrate=N/A speed=19.3x    frame=19149 fps=463 q=-0.0 size=N/A time=00:13:18.67 bitrate=N/A speed=19.3x    frame=19366 fps=463 q=-0.0 size=N/A time=00:13:27.72 bitrate=N/A speed=19.3x    frame=19613 fps=463 q=-0.0 size=N/A time=00:13:38.02 bitrate=N/A speed=19.3x    frame=19868 fps=463 q=-0.0 size=N/A time=00:13:48.66 bitrate=N/A speed=19.3x    frame=20128 fps=464 q=-0.0 size=N/A time=00:13:59.50 bitrate=N/A speed=19.3x    frame=20384 fps=464 q=-0.0 size=N/A time=00:14:10.18 bitrate=N/A speed=19.4x    frame=20644 fps=465 q=-0.0 size=N/A time=00:14:21.02 bitrate=N/A speed=19.4x    frame=20904 fps=465 q=-0.0 size=N/A time=00:14:31.87 bitrate=N/A speed=19.4x    frame=21170 fps=466 q=-0.0 size=N/A time=00:14:42.96 bitrate=N/A speed=19.4x    frame=21422 fps=466 q=-0.0 size=N/A time=00:14:53.47 bitrate=N/A speed=19.4x    frame=21684 fps=466 q=-0.0 size=N/A time=00:15:04.40 bitrate=N/A speed=19.4x    frame=21942 fps=466 q=-0.0 size=N/A time=00:15:15.16 bitrate=N/A speed=19.5x    frame=22198 fps=467 q=-0.0 size=N/A time=00:15:25.84 bitrate=N/A speed=19.5x    frame=22456 fps=467 q=-0.0 size=N/A time=00:15:36.60 bitrate=N/A speed=19.5x    frame=22735 fps=468 q=-0.0 size=N/A time=00:15:48.23 bitrate=N/A speed=19.5x    frame=23009 fps=468 q=-0.0 size=N/A time=00:15:59.66 bitrate=N/A speed=19.5x    frame=23251 fps=469 q=-0.0 size=N/A time=00:16:09.76 bitrate=N/A speed=19.5x    frame=23497 fps=469 q=-0.0 size=N/A time=00:16:20.02 bitrate=N/A speed=19.5x    frame=23732 fps=469 q=-0.0 size=N/A time=00:16:29.82 bitrate=N/A speed=19.5x    frame=23970 fps=469 q=-0.0 size=N/A time=00:16:39.74 bitrate=N/A speed=19.5x    frame=24218 fps=469 q=-0.0 size=N/A time=00:16:50.09 bitrate=N/A speed=19.5x    frame=24467 fps=469 q=-0.0 size=N/A time=00:17:00.47 bitrate=N/A speed=19.6x    frame=24740 fps=469 q=-0.0 size=N/A time=00:17:11.86 bitrate=N/A speed=19.6x    frame=24978 fps=469 q=-0.0 size=N/A time=00:17:21.79 bitrate=N/A speed=19.6x    frame=25192 fps=469 q=-0.0 size=N/A time=00:17:30.71 bitrate=N/A speed=19.6x    frame=25418 fps=468 q=-0.0 size=N/A time=00:17:40.14 bitrate=N/A speed=19.5x    frame=25665 fps=469 q=-0.0 size=N/A time=00:17:50.44 bitrate=N/A speed=19.5x    frame=25907 fps=469 q=-0.0 size=N/A time=00:18:00.53 bitrate=N/A speed=19.5x    frame=26130 fps=468 q=-0.0 size=N/A time=00:18:09.83 bitrate=N/A speed=19.5x    frame=26377 fps=468 q=-0.0 size=N/A time=00:18:20.14 bitrate=N/A speed=19.5x    frame=26628 fps=468 q=-0.0 size=N/A time=00:18:30.60 bitrate=N/A speed=19.5x    frame=26894 fps=469 q=-0.0 size=N/A time=00:18:41.70 bitrate=N/A speed=19.6x    frame=27168 fps=469 q=-0.0 size=N/A time=00:18:53.13 bitrate=N/A speed=19.6x    frame=27424 fps=470 q=-0.0 size=N/A time=00:19:03.80 bitrate=N/A speed=19.6x    frame=27677 fps=470 q=-0.0 size=N/A time=00:19:14.36 bitrate=N/A speed=19.6x    frame=27909 fps=470 q=-0.0 size=N/A time=00:19:24.03 bitrate=N/A speed=19.6x    frame=28126 fps=469 q=-0.0 size=N/A time=00:19:33.08 bitrate=N/A speed=19.6x    frame=28372 fps=469 q=-0.0 size=N/A time=00:19:43.34 bitrate=N/A speed=19.6x    frame=28608 fps=469 q=-0.0 size=N/A time=00:19:53.19 bitrate=N/A speed=19.6x    frame=28856 fps=469 q=-0.0 size=N/A time=00:20:03.53 bitrate=N/A speed=19.6x    frame=29091 fps=469 q=-0.0 size=N/A time=00:20:13.33 bitrate=N/A speed=19.6x    frame=29355 fps=470 q=-0.0 size=N/A time=00:20:24.34 bitrate=N/A speed=19.6x    frame=29606 fps=470 q=-0.0 size=N/A time=00:20:34.81 bitrate=N/A speed=19.6x    frame=29846 fps=470 q=-0.0 size=N/A time=00:20:44.82 bitrate=N/A speed=19.6x    frame=30079 fps=470 q=-0.0 size=N/A time=00:20:54.54 bitrate=N/A speed=19.6x    frame=30345 fps=470 q=-0.0 size=N/A time=00:21:05.63 bitrate=N/A speed=19.6x    frame=30612 fps=470 q=-0.0 size=N/A time=00:21:16.77 bitrate=N/A speed=19.6x    frame=30847 fps=470 q=-0.0 size=N/A time=00:21:26.57 bitrate=N/A speed=19.6x    frame=31089 fps=470 q=-0.0 size=N/A time=00:21:36.67 bitrate=N/A speed=19.6x    frame=31351 fps=471 q=-0.0 size=N/A time=00:21:47.59 bitrate=N/A speed=19.6x    frame=31615 fps=471 q=-0.0 size=N/A time=00:21:58.60 bitrate=N/A speed=19.6x    frame=31834 fps=470 q=-0.0 size=N/A time=00:22:07.74 bitrate=N/A speed=19.6x    frame=32065 fps=470 q=-0.0 size=N/A time=00:22:17.37 bitrate=N/A speed=19.6x    frame=32302 fps=470 q=-0.0 size=N/A time=00:22:27.26 bitrate=N/A speed=19.6x    frame=32552 fps=470 q=-0.0 size=N/A time=00:22:37.68 bitrate=N/A speed=19.6x    frame=32776 fps=470 q=-0.0 size=N/A time=00:22:47.03 bitrate=N/A speed=19.6x    frame=33008 fps=470 q=-0.0 size=N/A time=00:22:56.70 bitrate=N/A speed=19.6x    frame=33249 fps=470 q=-0.0 size=N/A time=00:23:06.76 bitrate=N/A speed=19.6x    frame=33485 fps=470 q=-0.0 size=N/A time=00:23:16.60 bitrate=N/A speed=19.6x    frame=33719 fps=470 q=-0.0 size=N/A time=00:23:26.36 bitrate=N/A speed=19.6x    frame=33944 fps=469 q=-0.0 size=N/A time=00:23:35.74 bitrate=N/A speed=19.6x    frame=34168 fps=469 q=-0.0 size=N/A time=00:23:45.09 bitrate=N/A speed=19.6x    [Parsed_psnr_10 @ 00000202d6b9db40] PSNR y:49.332386 u:51.147947 v:51.565835 average:49.907124 min:43.283549 max:inf
[out#0/null @ 00000202d6634680] video:14697KiB audio:267500KiB subtitle:0KiB other streams:0KiB global headers:0KiB muxing overhead: unknown
frame=34203 fps=469 q=-0.0 Lsize=N/A time=00:23:46.55 bitrate=N/A speed=19.6x    
